<?xml version="1.0" encoding="UTF-8"?>
<svg xmlns="http://www.w3.org/2000/svg" viewBox="0 0 499 158">
  <g fill="none" fill-rule="evenodd">
    <path d="M403.331 147.972v-14.531H391.52v2.312h9.328v.125c0 3.313-.86 5.907-2.594 7.719-1.734 1.86-4.187 2.766-7.297 2.766-3.031 0-5.469-1.141-7.25-3.391-1.765-2.281-2.672-5.36-2.672-9.266 0-4.015.907-7.078 2.672-9.25 1.781-2.171 4.297-3.265 7.563-3.265 2.406 0 4.422.594 6.031 1.765 1.61 1.22 2.61 2.844 3 4.922h2.672c-.39-2.828-1.656-5.031-3.703-6.61-2.047-1.577-4.719-2.358-8.031-2.358-3.938 0-7.094 1.328-9.375 3.968-2.329 2.64-3.47 6.266-3.47 10.875 0 4.64 1.141 8.313 3.391 10.985 2.282 2.687 5.36 4.015 9.297 4.015 2.25 0 4.25-.5 5.985-1.531 1.734-1.016 3.03-2.438 3.906-4.25l.266 5h2.093Zm7.675 0v-11.266c0-2.406.516-4.218 1.547-5.39 1.016-1.235 2.516-1.813 4.562-1.813h.313v-2.484h-.281c-1.532 0-2.797.36-3.86 1.016-1.015.671-1.843 1.703-2.437 3.078v-3.578h-2.281v20.437h2.437Zm12.894-16.578c1.218-1.547 2.906-2.297 5.109-2.297 2.219 0 3.937.75 5.125 2.25 1.219 1.531 1.812 3.672 1.812 6.422 0 2.797-.593 4.922-1.812 6.422-1.188 1.5-2.906 2.25-5.125 2.25-2.203 0-3.89-.75-5.11-2.297-1.234-1.484-1.812-3.61-1.812-6.375 0-2.75.578-4.89 1.813-6.375Zm-1.813 14.297c1.656 1.844 3.938 2.797 6.922 2.797 3 0 5.328-.953 6.984-2.797 1.61-1.89 2.438-4.531 2.438-7.922 0-3.422-.828-6.063-2.485-7.953-1.656-1.86-3.937-2.797-6.937-2.797-2.984 0-5.266.937-6.922 2.797-1.625 1.89-2.453 4.531-2.453 7.953 0 3.422.828 6.062 2.453 7.922Zm34.187-18.156v12.093c0 2.078-.547 3.735-1.688 4.922-1.14 1.219-2.687 1.813-4.656 1.813-1.813 0-3.063-.438-3.86-1.313-.75-.86-1.14-2.281-1.14-4.328v-13.188h-2.36v13.735c0 2.406.594 4.219 1.735 5.437 1.172 1.22 2.906 1.813 5.203 1.813 1.531 0 2.875-.313 3.969-.938 1.14-.64 2.094-1.578 2.875-2.875v3.266h2.281v-20.438h-2.36Zm11.824 3.812c1.22-1.5 2.907-2.25 5.11-2.25 2.218 0 3.937.75 5.125 2.25 1.218 1.531 1.812 3.672 1.812 6.422 0 2.797-.594 4.922-1.812 6.422-1.188 1.5-2.907 2.25-5.125 2.25-2.157 0-3.86-.75-5.078-2.297-1.172-1.531-1.813-3.656-1.813-6.375 0-2.75.594-4.922 1.781-6.422Zm-1.656 24.86v-11.782c.781 1.375 1.766 2.406 2.906 3.078 1.141.672 2.532 1.016 4.094 1.016 2.844 0 5.094-.938 6.75-2.875 1.61-1.89 2.438-4.531 2.438-7.875 0-3.344-.797-5.953-2.407-7.875-1.609-1.938-3.859-2.875-6.656-2.875-1.656 0-3.078.36-4.219 1.016-1.172.671-2.125 1.734-2.906 3.156v-3.656h-2.406v28.671h2.406Z" fill="#005EB8" fill-rule="nonzero"></path>
    <path d="M150.332 20.37h2.125c5.562 0 9.547 1 11.828 2.843 2.422 1.86 3.563 5 3.563 9.266 0 5.281-1.141 8.984-3.266 11.266-2.281 2.422-5.844 3.562-10.984 3.562h-1.985c-.437-.14-.86-.14-1.281-.14V20.37Zm0 87.78V67.105h8.828c11.11 0 19.516-2.844 25.219-8.406 5.703-5.688 8.547-13.953 8.547-24.797 0-6.547-.985-12.25-3.125-16.953-2-4.844-4.985-8.406-8.985-10.828-2.984-1.844-6.547-3.141-10.969-3.985-4.28-.718-10.968-1.14-20.093-1.14h-24.656V108.15h25.234Zm67.94 0V69.527c0-7.406.702-12.39 2.14-14.953 1.422-2.563 3.984-3.844 7.547-3.844 1 0 2 0 3.14.14 1.141.141 2.282.423 3.563.704v-25.5c-3.703.422-6.984 1.562-9.984 3.703-2.985 2-5.704 5.125-8.125 9.125V27.635h-20.657v80.516h22.375Zm40.777-61.562c1-2.843 2.843-4.265 5.562-4.265 2.703 0 4.563 1.422 5.547 4.125 1 2.703 1.578 9.969 1.578 21.515 0 11.547-.578 18.672-1.578 21.375-.984 2.704-2.844 4.141-5.547 4.141-2.719 0-4.562-1.437-5.562-4.281-1-2.844-1.563-9.969-1.563-21.235 0-11.39.563-18.515 1.563-21.375Zm-17.672 54.297c4.562 6.266 12.265 9.407 23.234 9.407 10.969 0 18.656-3.141 23.219-9.407 4.422-6.265 6.703-17.25 6.703-32.922 0-15.812-2.281-26.78-6.703-33.062-4.563-6.266-12.25-9.406-23.219-9.406-10.969 0-18.672 3.14-23.234 9.406-4.422 6.422-6.688 17.39-6.688 33.062 0 15.672 2.266 26.797 6.688 32.922Zm85.23-75.39c9.827 0 17.093 2.578 21.655 7.562 4.704 4.985 6.985 12.828 6.985 23.516v1.422H333.59v-2.282c0-4.843-.579-8.265-1.579-10.265-1-2.14-2.843-3.125-5.265-3.125-2.86 0-4.703 1.422-5.703 4.125-1 2.703-1.563 9.828-1.563 21.515 0 11.125.563 18.25 1.563 21.235 1 3 2.843 4.562 5.562 4.562 2.422 0 4.125-1.14 5.125-3.281 1.14-2.14 1.719-5.562 1.719-10.266V78.51c-.156-.86-.156-1.562-.156-2h22.093c0 .438 0 1 .141 1.578v1.563c0 10.266-2.422 17.953-7.125 23.078-4.844 5-12.11 7.563-21.797 7.563-10.969 0-18.672-3.141-23.234-9.407-4.422-6.125-6.688-17.25-6.688-32.922 0-15.812 2.266-26.78 6.688-33.062 4.562-6.266 12.265-9.406 23.234-9.406Zm99.777 0c10.968 0 18.656 3.14 23.218 9.406 4.422 6.281 6.703 17.25 6.703 33.062 0 15.672-2.28 26.657-6.703 32.922-4.562 6.266-12.25 9.407-23.218 9.407-10.97 0-18.672-3.141-23.235-9.407-4.422-6.125-6.687-17.25-6.687-32.922 0-15.671 2.265-26.64 6.687-33.062 4.563-6.266 12.266-9.406 23.235-9.406ZM385.902 5.4v22.234h10.688v16.672h-10.688v32.781c0 6.985.563 11.391 1.563 12.97 1 1.562 3 2.421 5.843 2.421.578 0 1.422 0 2.563-.14.281-.141.578-.141.719-.141v15.672c-2.704.562-5.125.843-7.125 1.14-2.141.282-3.844.422-5.282.422-4.406 0-8.265-.719-11.39-2.14-3.14-1.422-5.422-3.563-6.844-6.266-1-1.86-1.703-4.125-2.14-6.984-.407-2.743-.553-6.822-.563-12.223V44.307h-8.703V27.635h8.703V5.401h22.656Zm40.482 36.922c-2.72 0-4.563 1.422-5.563 4.265-1 2.86-1.562 9.985-1.562 21.375v.6c.02 10.92.58 17.842 1.562 20.635 1 2.844 2.844 4.281 5.563 4.281 2.703 0 4.562-1.437 5.546-4.14 1-2.704 1.579-9.829 1.579-21.376 0-11.546-.579-18.812-1.579-21.515-.984-2.703-2.843-4.125-5.546-4.125Zm56.15 65.828V69.526c0-7.406.704-12.39 2.141-14.953 1.422-2.563 3.985-3.844 7.547-3.844 1 0 2 0 3.141.14 1.14.141 2.281.423 3.562.704v-25.5c-3.703.422-6.984 1.562-9.984 3.703-2.984 2-5.703 5.125-8.125 9.125V27.635H460.16v80.516h22.375Z" fill="#17221D" fill-rule="nonzero"></path>
    <path d="M29.457 2.598h77.965v95.675h-18.68L29.457 2.598ZM.191 9.528v45.437h28.102L.191 9.527ZM37.734 70.94H0v38.7h37.926V98.465h16.941L37.734 70.94" fill="#005EB8"></path>
  </g>
</svg>
