<?xml version="1.0" encoding="utf-8"?>
<!-- Generator: Adobe Illustrator 16.0.0, SVG Export Plug-In . SVG Version: 6.00 Build 0)  -->
<!DOCTYPE svg PUBLIC "-//W3C//DTD SVG 1.1//EN" "http://www.w3.org/Graphics/SVG/1.1/DTD/svg11.dtd">
<svg version="1.1" id="Layer_1" xmlns="http://www.w3.org/2000/svg" xmlns:xlink="http://www.w3.org/1999/xlink" x="0px" y="0px"
	 width="1332px" height="504px" viewBox="516.5 123.5 1332 504" enable-background="new 516.5 123.5 1332 504" xml:space="preserve"
	>
<g id="Layer_1_1_">
	<g>
		<g>
			<path fill="#FF7400" d="M856.301,358.237l103.291-95.973h-59.2l-104.905,97.589v-97.589H751.11v209.051h44.376v-56.729
				l28.792-26.892l81.055,83.62h60.815L856.301,358.237z"/>
			<path fill="#FF7400" d="M995.035,325.644h-45.611l42.096,97.209h45.706L995.035,325.644z"/>
			<path fill="#FF7400" d="M1221.476,434.921c-11.688,0-16.439-7.888-16.439-25.371v-44.376h51.313v-39.625h-51.313V287.54h-42.761
				v38.009H1137v39.625h25.371v50.362c0,39.244,18.72,58.914,59.199,58.914c20.62,0,33.543-4.466,46.847-7.887v-41.146
				C1253.213,430.169,1244.661,434.921,1221.476,434.921z"/>
			<path fill="#FF7400" d="M1409.336,325.644v91.223c-13.303,9.502-29.172,18.055-46.846,18.055
				c-21.855,0-30.123-2.566-30.123-29.742v-79.535h-42.76v82.386c0,45.896,26.605,66.516,69.651,66.516
				c18.72,0,35.443-5.986,50.077-14.253v11.022h42.761V325.644H1409.336z"/>
			<path fill="#FF7400" d="M1581.328,322.413c-21.19,0-41.525,6.937-58.629,16.154v-13.019h-42.761v145.766h42.761v-90.272
				c14.918-10.167,33.543-19.004,55.398-19.004c17.104,0,27.842,5.986,27.842,29.457v79.819h42.76v-82.67
				C1648.795,343.984,1623.803,322.413,1581.328,322.413z"/>
		</g>
		<path fill="#FF7400" d="M1013.375,473.5"/>
		<path fill="#FF7400" d="M951.609,537.736v-39.435h33.543l0,0c12.068,0,18.72-5.036,28.223-24.706l23.756-50.647l45.61-97.208
			h45.326l-68.417,145.67c-18.054,38.675-32.973,66.422-70.697,66.422L951.609,537.736z"/>
	</g>
</g>
<g id="Layer_2">
</g>
</svg>
