<svg xmlns="http://www.w3.org/2000/svg" viewBox="0 0 636 228" width="200" height="72"><symbol fill="none" viewBox="0 0 636 228" id="velux" xmlns="http://www.w3.org/2000/svg"><path d="M508.5.559h-381v128h381v-128Z" fill="#fff"/><path d="M476.795 59.547h-.071v11.51h2.232v-4.656h.967c0 .07 2.83 4.657 2.83 4.657l2.302.07h.141s-2.988-4.727-3.129-4.956c1.564-.456 2.461-1.599 2.461-3.128 0-2.126-1.494-3.426-4.025-3.426h-3.726v-.07h.018Zm3.638 1.758c1.265 0 1.933.615 1.933 1.67 0 1.37-1.037 1.669-1.933 1.669h-1.565v-3.269c.159-.07 1.565-.07 1.565-.07Zm-10.493 4.112c0 6.097 4.464 10.596 10.352 10.596 5.958 0 10.422-4.569 10.422-10.596 0-6.098-4.464-10.597-10.352-10.597-5.958 0-10.422 4.57-10.422 10.597Zm1.933 0c0-4.886 3.656-8.61 8.419-8.61 4.833 0 8.419 3.724 8.419 8.61 0 4.955-3.568 8.68-8.419 8.68-4.763 0-8.419-3.725-8.419-8.68ZM229.649 31.273h53.623v21.65h-11.688V42.87h-19.139v15.692h15.413v11.58h-15.413V88.05h19.139V77.911h11.688v21.72h-54.22V88.05h7.293V42.852h-6.696v-11.58ZM331.235 77.84h12.074v21.72h-52.515V87.98h8.788V42.852h-8.788v-11.58h33.885v11.58h-9.016V88.05h15.502V77.84h.07ZM198.734 31.273h25.625v11.58h-5.958l-17.734 56.778H186.22l-18.401-56.778h-7.294v-11.58h30.546v11.58h-7.083l10.282 34.601h.141l11.177-34.6h-6.784V31.272h-.07Zm182.942 0h23.323v11.58h-6.116V81.11c0 15.921-14.974 19.278-24.202 19.278-12.812 0-24.658-5.114-24.658-21.79V42.852h-7.294v-11.58h28.683v11.58h-5.36v34.671c0 6.713 3.058 11.282 10.211 11.282 6.029 0 10.879-2.9 10.879-10.667V42.853h-5.43v-11.58h-.036Zm83.572 56.777h7.452v11.58h-31.144V88.737h6.257l-9.526-14.181-9.245 14.18h6.257v10.896h-26.451V88.05h6.995l15.203-23.548-14.957-21.65h-5.729v-11.58h28.981v10.895h-5.887l9.156 12.81 8.349-12.81h-5.66V31.273h27.418v11.58h-8.647l-14.605 22.335 15.783 22.862ZM14.14 174.275H0v-4.814h33.394v4.814H19.555v40.614H14.14v-40.614ZM37.906 186.309h-4.813v-4.512h9.627v5.716c.903-2.106 1.805-3.61 3.31-4.814 1.503-1.203 3.008-1.805 5.114-1.805s3.61.602 4.813 1.504c1.204.903 1.805 2.407 2.106 3.911.301 1.805.301 3.611 0 5.717H52.95c.3-1.806 0-3.31-.301-4.513-.602-1.204-1.504-1.805-2.708-1.805-1.203 0-2.407.601-3.61 1.805-1.203 1.203-1.805 2.707-2.407 4.513-.601 2.106-.902 4.211-.902 6.618v15.945h-5.416l.301-28.28ZM63.484 213.085c-2.106-1.805-3.008-4.212-3.008-6.92 0-2.106.602-4.212 1.805-5.716 1.203-1.504 3.008-3.008 5.114-3.61 2.106-.903 4.814-1.203 7.822-1.203 3.009 0 6.017.3 9.327 1.203v-1.504c0-3.009-.602-5.416-2.106-6.92-1.505-1.504-3.61-2.407-6.318-2.407-2.106 0-3.911.602-5.115 1.505-1.203.902-2.105 2.106-2.406 3.911h-5.416c.301-2.106.903-3.611 2.106-5.115 1.204-1.504 2.708-2.707 4.814-3.61 1.805-.903 4.212-1.203 6.318-1.203 4.512 0 7.822 1.203 10.229 3.61 2.406 2.407 3.61 6.017 3.61 10.53v19.555h-5.115v-6.017c-1.203 2.106-2.707 3.61-4.813 4.814-2.106 1.203-4.814 1.805-8.123 1.805-3.911-.301-6.619-.903-8.725-2.708Zm15.043-3.309c1.805-.903 3.31-2.106 4.212-3.611.902-1.504 1.504-3.309 1.805-5.415-1.204-.301-2.708-.602-4.212-.902-1.504-.301-3.009-.301-4.513-.301-3.31 0-5.716.601-7.521 1.504-1.504 1.203-2.407 2.708-2.407 4.814 0 1.504.602 2.707 1.805 3.61 1.204.902 2.708 1.504 4.814 1.504 2.406 0 4.512-.301 6.017-1.203ZM101.083 186.309H96.27v-4.512h9.928v6.317c1.203-2.106 2.707-3.911 4.813-5.114 2.106-1.203 4.212-1.805 6.92-1.805 4.513 0 7.22 1.504 9.025 4.212 1.505 2.707 2.407 6.017 2.407 9.928v19.555h-6.017v-18.953c0-3.31-.602-5.717-1.504-7.221-1.204-1.504-3.009-2.407-5.716-2.407-1.805 0-3.31.602-4.814 1.505-1.504 1.203-2.707 2.707-3.309 4.512-.903 2.106-1.204 4.212-1.204 6.92v15.644h-5.415v-28.581h-.301ZM139.598 212.784c-2.407-1.805-3.911-4.513-3.911-8.123h5.415c.301 2.106.903 3.61 2.407 4.814 1.504 1.203 3.61 1.504 6.618 1.504 2.708 0 4.814-.602 6.017-1.504 1.204-.903 2.106-2.106 2.106-3.911 0-1.204-.3-2.407-.902-3.009a5.824 5.824 0 0 0-2.708-1.504c-1.203-.301-2.707-.602-4.813-.902h-.301c-2.708-.301-5.115-.903-6.92-1.204-1.805-.301-3.008-1.504-4.212-2.708-1.203-1.203-1.504-3.008-1.504-5.415 0-1.805.602-3.61 1.504-5.114.903-1.505 2.407-2.708 4.513-3.611 1.805-.902 4.212-1.203 6.619-1.203 2.707 0 4.813.301 6.919 1.203 2.106.903 3.31 2.106 4.513 3.611.903 1.504 1.504 3.008 1.504 5.114h-5.415c-.301-1.805-.903-3.008-2.407-3.911-1.203-.902-3.309-1.504-5.716-1.504s-3.911.602-5.415 1.504c-1.204.903-1.805 2.407-1.805 3.911 0 1.204.301 2.106.902 2.708.602.601 1.505 1.203 2.407 1.504 1.203.301 2.708.602 4.814.903h.902c2.708.3 5.115.902 6.619 1.203 1.504.301 3.008 1.504 4.212 2.708 1.203 1.203 1.504 3.309 1.504 5.716 0 3.008-1.203 5.415-3.61 7.22-2.407 1.805-5.716 2.708-9.627 2.708-4.212 0-7.822-.903-10.229-2.708ZM174.188 186.309h-6.318v-4.513h6.318v-5.114c0-2.407.602-4.513 1.805-6.017 1.204-1.505 3.31-2.106 5.716-2.106 2.407 0 4.212.902 5.717 2.406 1.203 1.505 1.805 3.911 1.504 6.619h-4.513c0-1.805 0-3.008-.602-3.61-.301-.602-1.203-.903-2.106-.903-.902 0-1.504.301-1.805.903-.301.602-.601 1.203-.601 2.407v5.716h9.025v4.212h-9.025v28.581h-5.115v-28.581ZM197.359 213.386c-2.707-1.504-4.512-3.61-6.016-6.017-1.505-2.708-2.106-5.716-2.106-9.026 0-3.309.601-6.318 2.106-9.025 1.504-2.708 3.309-4.513 6.016-6.017 2.708-1.504 5.717-2.106 9.026-2.106s6.318.602 9.025 2.106c2.708 1.504 4.513 3.61 6.017 6.017 1.505 2.407 2.106 5.716 2.106 9.025 0 3.31-.601 6.318-2.106 9.026-1.504 2.708-3.309 4.513-6.017 6.017-2.707 1.504-5.716 2.106-9.025 2.106s-6.318-.602-9.026-2.106Zm15.043-3.911c1.805-.903 3.008-2.407 4.212-4.513.902-1.805 1.504-4.212 1.504-6.619 0-2.406-.602-4.512-1.504-6.618-.903-1.805-2.407-3.31-4.212-4.513-1.805-.903-3.61-1.504-6.017-1.504-2.407 0-4.212.601-6.017 1.504-1.805 1.203-3.009 2.407-4.212 4.513-.902 1.805-1.504 4.212-1.504 6.618 0 2.407.602 4.513 1.504 6.619.903 1.805 2.407 3.309 4.212 4.513 1.805 1.203 3.61 1.504 6.017 1.504 2.106 0 4.212-.602 6.017-1.504ZM231.047 186.309h-4.813v-4.512h9.627v5.716c.903-2.106 1.805-3.61 3.309-4.814 1.505-1.203 3.009-1.805 5.115-1.805 2.106 0 3.61.602 4.813 1.504 1.204.903 1.805 2.407 2.106 3.911.301 1.805.301 3.611 0 5.717h-5.114c.301-1.806 0-3.31-.301-4.513-.602-1.204-1.504-1.805-2.708-1.805-1.203 0-2.406.601-3.61 1.805-1.203 1.203-1.805 2.707-2.407 4.513-.601 2.106-.902 4.211-.902 6.618v15.945h-5.415l.3-28.28ZM259.327 186.309h-4.814v-4.512h9.928v6.317c1.204-2.106 2.708-3.911 4.513-5.114 2.106-1.203 4.212-1.805 6.619-1.805 3.008 0 5.114.602 6.618 2.106 1.504 1.504 2.708 3.309 3.31 5.415 1.504-2.407 3.008-4.212 5.114-5.716 2.106-1.203 4.212-1.805 6.619-1.805 4.212 0 7.22 1.504 8.724 4.212 1.504 2.707 2.407 6.017 2.407 9.627v19.555h-5.415v-18.953c0-3.31-.602-5.716-1.504-7.522-.903-1.805-3.009-2.406-5.416-2.406-1.805 0-3.309.601-4.813 1.504-1.505 1.203-2.407 2.708-3.31 4.513-.902 2.106-1.203 4.212-1.203 6.919v15.644h-5.415v-18.953c0-3.31-.602-5.716-1.505-7.521-.902-1.806-3.008-2.407-5.415-2.407-1.805 0-3.309.601-4.813 1.504-1.505 1.203-2.407 2.708-3.31 4.513-.902 2.106-1.203 4.212-1.203 6.919v15.645h-5.415v-27.679h-.301ZM320.103 186.309h-5.716v-4.513h11.132v32.793h-5.416v-28.28Zm0-9.928c-.601-.602-.902-1.505-.902-2.407 0-.903.301-1.805.902-2.407.602-.602 1.505-.902 2.708-.902 1.203 0 2.106.3 2.708.902.601.602.902 1.504.902 2.407 0 .902-.301 1.805-.902 2.407-.602.601-1.505.902-2.708.902-1.203 0-2.106-.301-2.708-.902ZM337.559 186.309h-4.814v-4.512h9.928v6.317c1.204-2.106 2.708-3.911 4.814-5.114 2.106-1.203 4.212-1.805 6.919-1.805 4.513 0 7.221 1.504 9.026 4.212 1.504 2.707 2.406 6.017 2.406 9.928v19.555h-5.415v-18.953c0-3.31-.602-5.717-1.504-7.221-1.203-1.504-3.009-2.407-5.716-2.407-1.805 0-3.31.602-4.814 1.505-1.504 1.203-2.707 2.707-3.309 4.512-.903 2.106-1.203 4.212-1.203 6.92v15.644h-5.416l-.902-28.581ZM383.889 226.322c-1.805-.902-3.309-1.805-4.212-3.309-.903-1.203-1.504-2.708-1.805-4.513h5.415c.301 1.204 1.204 2.407 2.106 3.009 1.204.902 2.708 1.203 4.814 1.203 2.707 0 4.813-.902 6.318-2.407 1.504-1.504 2.105-3.61 2.105-5.716v-5.415c-1.203 2.106-2.707 3.61-4.813 4.814-2.106 1.203-4.513 1.805-6.92 1.805-2.707 0-5.114-.602-7.521-2.106-2.407-1.505-3.911-3.31-5.415-6.017-1.203-2.708-2.106-5.717-2.106-9.026s.602-6.619 2.106-9.025c1.203-2.708 3.008-4.513 5.415-6.017 2.407-1.505 4.814-2.106 7.521-2.106 2.708 0 4.814.601 6.92 1.805 2.106 1.203 3.61 2.407 4.513 4.212v-5.115h9.928v3.911h-4.814v27.979c0 2.407-.602 4.814-1.504 6.619-1.204 2.106-2.708 3.61-4.814 4.513-2.106 1.203-4.512 1.805-7.22 1.805-2.106.301-4.212 0-6.017-.903Zm9.928-16.847a9.766 9.766 0 0 0 3.911-4.513c.902-2.106 1.504-4.212 1.504-6.619s-.602-4.813-1.504-6.618c-.903-1.806-2.106-3.31-3.911-4.212-1.504-.903-3.61-1.505-5.415-1.505-3.009 0-5.716 1.204-7.522 3.31-1.805 2.407-3.008 5.415-3.008 9.025 0 2.407.301 4.814 1.203 6.619.903 1.805 2.106 3.309 3.611 4.513a10.392 10.392 0 0 0 5.415 1.504c2.106 0 3.911-.602 5.716-1.504ZM430.21 211.881c-3.009-2.407-4.513-6.017-4.513-10.53h5.415c.301 3.009 1.203 5.415 3.009 7.221 1.805 1.805 4.512 2.707 7.822 2.707 3.309 0 5.716-.602 7.521-2.106 1.805-1.504 2.707-3.309 2.707-6.318 0-1.805-.3-3.309-1.203-4.512-.903-1.204-2.106-1.806-3.61-2.407-1.504-.602-3.61-1.204-6.619-1.805h-.601c-3.009-.602-5.115-1.505-7.221-2.106-1.805-.903-3.309-2.106-4.813-3.611-1.505-1.504-1.806-3.911-1.806-6.618 0-2.708.602-4.814 1.806-6.92 1.203-2.106 3.008-3.309 5.114-4.513 2.106-.902 4.814-1.504 7.521-1.504 3.31 0 6.017.602 8.424 1.805 2.407 1.204 4.212 2.708 5.415 4.814 1.204 2.106 2.106 4.212 2.106 6.919h-5.415c-.301-2.707-1.204-5.114-3.009-6.618-1.805-1.505-4.211-2.106-7.521-2.106-2.707 0-4.813.601-6.618 2.106-1.806 1.504-2.708 3.309-2.708 6.017 0 1.504.301 3.008 1.203 3.911.602.902 1.805 1.805 3.009 2.407 1.203.601 3.008 1.203 5.114 1.504l2.106.602c3.009.601 5.716 1.504 7.822 2.106 2.106.601 3.61 2.105 4.814 3.61 1.203 1.805 2.106 4.212 2.106 7.22 0 4.212-1.505 7.521-4.212 9.627-3.009 2.407-6.619 3.611-11.432 3.611-4.814-.602-8.725-1.805-11.733-4.513ZM460.9 222.412h4.814v-36.103H460.9v-4.512h10.229v5.716c1.204-2.106 2.708-3.61 4.814-4.814 2.106-1.203 4.513-1.805 6.919-1.805 2.708 0 5.115.602 7.522 2.106 2.105 1.504 3.911 3.309 5.415 6.017s2.106 5.716 2.106 9.026c0 3.309-.602 6.618-2.106 9.025s-3.009 4.513-5.415 6.017c-2.407 1.504-4.814 2.106-7.522 2.106-2.707 0-4.813-.602-6.919-1.805-2.106-1.203-3.61-2.407-4.513-4.212v13.238h5.716v4.512h-15.945v-4.512h-.301Zm28.28-14.742c1.805-2.407 3.009-5.416 3.009-9.026 0-3.61-.903-6.618-3.009-9.025-1.805-2.407-4.513-3.31-7.521-3.31-2.106 0-3.911.602-5.415 1.505a9.747 9.747 0 0 0-3.911 4.512c-.903 2.106-1.505 4.212-1.505 6.619s.602 4.814 1.505 6.619c.902 1.805 2.106 3.309 3.911 4.513 1.504.902 3.61 1.504 5.415 1.504 3.008-.602 5.716-1.805 7.521-3.911ZM504.822 213.085c-2.105-1.805-3.008-4.212-3.008-6.92 0-2.106.602-4.212 1.805-5.716 1.203-1.504 3.009-3.008 5.114-3.61 2.106-.903 4.814-1.203 7.823-1.203 3.008 0 6.016.3 9.326 1.203v-1.504c0-3.009-.602-5.416-2.106-6.92-1.504-1.504-3.61-2.407-6.318-2.407-2.106 0-3.911.602-5.114 1.505-1.204.902-2.106 2.106-2.407 3.911h-5.415c.3-2.106.902-3.611 2.106-5.115 1.203-1.504 2.707-2.707 4.813-3.61 1.805-.903 4.212-1.203 6.318-1.203 4.513 0 7.822 1.203 10.229 3.61 2.407 2.407 3.61 6.017 3.61 10.53v19.555h-5.114v-6.017c-1.204 2.106-2.708 3.61-4.814 4.814-2.106 1.203-4.814 1.805-8.123 1.805-3.911-.301-6.619-.903-8.725-2.708Zm15.043-3.309c1.805-.903 3.309-2.106 4.212-3.611.902-1.504 1.504-3.309 1.805-5.415-1.204-.301-2.708-.602-4.212-.902-1.504-.301-3.009-.301-4.513-.301-3.309 0-5.716.601-7.521 1.504-1.504 1.203-2.407 2.708-2.407 4.814 0 1.504.602 2.707 1.805 3.61 1.204.902 2.708 1.504 4.814 1.504 2.407 0 4.212-.301 6.017-1.203ZM545.736 213.386c-2.407-1.504-4.513-3.309-5.716-6.017-1.504-2.708-2.106-5.716-2.106-9.026 0-3.309.602-6.318 2.106-9.025 1.504-2.708 3.309-4.513 6.017-6.017 2.708-1.504 5.415-2.106 8.725-2.106 3.008 0 5.415.602 7.822 1.805 2.106 1.203 3.911 2.708 4.813 4.814 1.204 2.106 1.504 4.512 1.504 7.22h-5.114c0-3.009-.602-5.114-2.407-6.619-1.805-1.504-3.911-2.407-6.618-2.407-2.106 0-4.212.602-6.017 1.505-1.806.902-3.009 2.407-3.911 4.212-.903 1.805-1.505 4.212-1.505 6.618 0 2.407.602 4.814 1.505 6.619.902 1.805 2.105 3.309 3.911 4.212 1.805.903 3.61 1.504 5.716 1.504 2.106 0 4.212-.601 6.017-1.504 1.805-.903 3.008-2.407 3.911-4.212h5.415c-.903 3.009-2.708 5.415-5.415 7.521-2.708 2.106-6.017 3.009-9.627 3.009-3.611 0-6.619-.602-9.026-2.106ZM580.624 213.687c-2.406-1.504-4.512-3.309-6.017-6.017-1.504-2.708-2.106-5.716-2.106-9.026 0-3.309.602-6.317 2.106-8.724 1.505-2.708 3.31-4.814 5.716-6.318 2.407-1.504 5.416-2.407 8.725-2.407 3.009 0 5.716.602 7.822 2.106 2.106 1.203 3.911 3.009 4.814 5.415 1.203 2.106 1.504 4.814 1.504 7.522 0 1.203 0 2.406-.301 4.212h-24.97c.301 2.105.601 4.211 1.805 5.716.902 1.504 2.407 3.008 3.911 3.61 1.504.902 3.61 1.203 5.716 1.203 2.407 0 4.513-.301 6.017-1.203 1.504-.903 2.708-2.106 3.309-3.309h5.416c-.602 1.805-1.505 3.61-3.009 5.114s-3.008 2.407-5.114 3.309c-2.106.602-4.212 1.204-6.92 1.204-3.008-.602-6.017-1.204-8.424-2.407Zm15.344-25.272c-1.505-2.105-3.911-3.008-7.221-3.008-3.008 0-5.415.903-7.22 2.708-1.805 1.805-3.009 4.212-3.309 7.822h20.156c-.3-3.009-.902-5.416-2.406-7.522ZM612.534 212.784c-2.407-1.805-3.911-4.513-3.911-8.123h5.415c.301 2.106.903 3.61 2.407 4.814 1.504 1.203 3.61 1.504 6.619 1.504 2.707 0 4.813-.602 6.017-1.504 1.203-.903 2.106-2.106 2.106-3.911 0-1.204-.301-2.407-.903-3.009a5.826 5.826 0 0 0-2.707-1.504c-1.204-.301-2.708-.602-4.814-.902h-.301c-2.708-.301-5.114-.903-6.919-1.204-1.806-.301-3.009-1.504-4.212-2.708-1.204-1.203-1.505-3.008-1.505-5.415 0-1.805.602-3.61 1.505-5.114.902-1.505 2.406-2.708 4.512-3.611 1.805-.902 4.212-1.203 6.619-1.203 2.708 0 4.814.301 6.92 1.203 2.106.903 3.309 2.106 4.512 3.611.903 1.504 1.505 3.008 1.505 5.114h-5.416c-.301-1.805-.902-3.008-2.406-3.911-1.204-.902-3.31-1.504-5.717-1.504-2.406 0-3.911.602-5.415 1.504-1.203.903-1.805 2.407-1.805 3.911 0 1.204.301 2.106.903 2.708.601.601 1.504 1.203 2.406 1.504 1.204.301 2.708.602 4.814.903h.902c2.708.3 5.115.902 6.619 1.203 1.504.301 3.009 1.504 4.212 2.708 1.203 1.203 1.504 3.309 1.504 5.716 0 3.008-1.203 5.415-3.61 7.22-2.407 1.805-5.716 2.708-9.627 2.708-4.212 0-7.521-.903-10.229-2.708Z" fill="#28231F"/></symbol><use href="#velux"/></svg>